<svg id="Logo" xmlns="http://www.w3.org/2000/svg" viewBox="0 0 943.3 269.74"><defs><style>.cls-1{fill:#212851;}.cls-2{fill:#ffb100;}</style></defs><path class="cls-1" d="M258.75,101.11v31h34.44v9H258.75V172.7h38.3v9.51h-50V91.59h50v9.52Z"/><path class="cls-1" d="M364.21,118.39q7.59,7.9,7.58,22.82v41H360.1v-40q0-10.55-5.4-16.2t-14.65-5.65q-9.65,0-15.43,6.23t-5.78,18.19v37.4h-11.7V111.65h11.7v16.7a24.05,24.05,0,0,1,9.57-13.23,27.75,27.75,0,0,1,15.88-4.63Q356.62,110.49,364.21,118.39Z"/><path class="cls-1" d="M450.32,149.43H393.9q.39,12.09,6.87,18.13a22.44,22.44,0,0,0,15.88,6q8.48,0,14.2-4.31a17.82,17.82,0,0,0,7-11.5h12.46A29.48,29.48,0,0,1,433.1,179.9a38.11,38.11,0,0,1-15.94,3.21,36.33,36.33,0,0,1-18-4.37,30.88,30.88,0,0,1-12.28-12.53A39.74,39.74,0,0,1,382.46,147a40.12,40.12,0,0,1,4.43-19.28,30.79,30.79,0,0,1,12.28-12.59,36.23,36.23,0,0,1,18-4.37,35.44,35.44,0,0,1,17.93,4.37,30.08,30.08,0,0,1,11.7,11.69,32.93,32.93,0,0,1,4,16.2A34.13,34.13,0,0,1,450.32,149.43Zm-13.88-18.76a18.78,18.78,0,0,0-8.1-7.84,24.66,24.66,0,0,0-11.18-2.57,23.16,23.16,0,0,0-16.19,6q-6.56,6-7.07,17.55H439Q439.4,135.94,436.44,130.67Z"/><path class="cls-1" d="M484.13,114.54a30.15,30.15,0,0,1,15.93-4.05v12.72h-3.59q-9.9,0-16.2,5.08T474,145.06v37.15H462.28V111.65H474v14.26A26,26,0,0,1,484.13,114.54Z"/><path class="cls-1" d="M553.29,115.89a26.75,26.75,0,0,1,10,13.75v-18H575v71.72a35.84,35.84,0,0,1-4.11,17.35,29.57,29.57,0,0,1-11.57,11.82,34.47,34.47,0,0,1-17.35,4.24q-14.26,0-23.27-6.87a30.42,30.42,0,0,1-11.44-18.57h11.57a20,20,0,0,0,7.78,11.11q5.72,4.05,14.72,4.05A21.57,21.57,0,0,0,557,200.4q6.24-6.1,6.23-17V164.21a26.73,26.73,0,0,1-10,13.76q-7.12,5.15-17.41,5.14a32,32,0,0,1-16.71-4.37,30.22,30.22,0,0,1-11.51-12.53A41.73,41.73,0,0,1,503.49,147a42.14,42.14,0,0,1,4.17-19.28,30.14,30.14,0,0,1,11.51-12.59,31.9,31.9,0,0,1,16.71-4.37Q546.16,110.75,553.29,115.89ZM521.93,128q-6.49,6.89-6.49,19t6.49,19q6.5,6.88,17.29,6.88a23.91,23.91,0,0,0,12.4-3.22,22.39,22.39,0,0,0,8.55-9.06A28.61,28.61,0,0,0,563.25,147a29,29,0,0,0-3.08-13.62,21.89,21.89,0,0,0-8.55-9.06,24.35,24.35,0,0,0-12.4-3.15Q528.42,121.16,521.93,128Z"/><path class="cls-1" d="M595.43,111.65l22.88,55.52,21.21-55.52h13l-41.9,104H597.36L612,181.05l-29.69-69.4Z"/><path class="cls-1" d="M731.42,91.59v90.62H719.59v-41.9h-46v41.9h-11.7V91.59h11.7V130.8h46V91.59Z"/><path class="cls-1" d="M807.69,111.65v70.56H796V165.63a23.7,23.7,0,0,1-9.58,13.17,28.18,28.18,0,0,1-16,4.57q-12.21,0-19.79-7.91T743,152.78V111.65h11.7v40q0,10.55,5.4,16.26t14.65,5.72q9.65,0,15.43-6.24T796,149.18V111.65Z"/><path class="cls-1" d="M877,115.12a30.12,30.12,0,0,1,11.5,12.59A42,42,0,0,1,892.72,147a41.61,41.61,0,0,1-4.18,19.22A30.19,30.19,0,0,1,877,178.74a32,32,0,0,1-16.71,4.37q-10.29,0-17.41-5.21a26.42,26.42,0,0,1-9.84-13.69v18H821.39V87.1h11.69v42.54A26.46,26.46,0,0,1,842.92,116q7.13-5.2,17.41-5.2A31.9,31.9,0,0,1,877,115.12Zm-32.39,9.19a21.72,21.72,0,0,0-8.61,9.06A29,29,0,0,0,833,147,28.61,28.61,0,0,0,836,160.55a22.2,22.2,0,0,0,8.61,9.06A24,24,0,0,0,857,172.83q10.92,0,17.42-6.88t6.49-19q0-12.08-6.49-19T857,121.16A24.47,24.47,0,0,0,844.65,124.31Z"/><path class="cls-2" d="M190,113.08a13.55,13.55,0,0,0-13.49,6.4c-.11.18-.21.36-.31.54a14.47,14.47,0,0,1-9.92,7.28l-19.8,3.25a20.11,20.11,0,0,0-9.29-11.74c.87-3.06,6.26-18.09,6.26-18.09a29.54,29.54,0,0,1,15.51-16l.2-.08a18,18,0,1,0-22.77-7.42c3.78,6.54,4.07,15.21,1.77,22.4l-1.66,5.18-4.54,12a20.12,20.12,0,0,0-15.86,2.81l-12.7-15a14.83,14.83,0,0,1-2.85-12.11,13.6,13.6,0,0,0-1.32-8.74A13.47,13.47,0,0,0,74.87,95.21a13.55,13.55,0,0,0,12.47,8.21H88a14.44,14.44,0,0,1,11.37,4.71L112.08,123a20,20,0,0,0-5,13.2c0,.64,0,1.26.09,1.88l-6.72,1.2a29.53,29.53,0,0,1-21.61-5.53,1.09,1.09,0,0,1-.17-.13,18,18,0,1,0,4.84,23.45c3.8-6.52,11.19-11.07,18.58-12.64l5.32-1.12.91-.15a20.11,20.11,0,0,0,10.85,11.46l-11.36,30.24a14.83,14.83,0,0,1-9.17,8.4,13.57,13.57,0,0,0-7,5.42,13.47,13.47,0,1,0,23,.69l-.31-.53A14.45,14.45,0,0,1,113,186.65l11.36-30.56a19.49,19.49,0,0,0,2.87.21A20,20,0,0,0,138,153.12c3.09,3.72,6.11,7.4,6.11,7.4a29.57,29.57,0,0,1,5.78,21.55l0,.21a18,18,0,1,0,24.69-14.35,18.28,18.28,0,0,0-6.63-1.36c-7.55-.11-15.13-4.33-20.12-10l-3.59-4.08-2.19-2.77a20,20,0,0,0,5.21-13.49c0-.15,0-.3,0-.46l20-3.16a14.85,14.85,0,0,1,11.83,3.84A13.46,13.46,0,1,0,190,113.08Z"/></svg>